<svg width="22" height="24" viewBox="0 0 22 24" fill="none" xmlns="http://www.w3.org/2000/svg">
<path d="M8.81714 2.65828C9.08433 2.74641 9.33718 2.85919 9.56876 2.9935C9.62983 3.02891 9.69653 3.04577 9.76234 3.04577C9.89563 3.04577 10.0254 2.9767 10.0971 2.8531C10.2042 2.66843 10.1413 2.43191 9.95665 2.32476C9.67895 2.16369 9.37703 2.02891 9.05923 1.92407C8.85657 1.85728 8.63793 1.96732 8.57103 2.17008C8.50423 2.37284 8.61443 2.59143 8.81714 2.65828Z" fill="#FF9900"/>
<path d="M11.4382 6.79644C11.4382 7.37308 11.3712 7.96251 11.2392 8.54822C11.1922 8.7565 11.323 8.96339 11.5312 9.01034C11.5598 9.01678 11.5884 9.01988 11.6166 9.01988C11.7933 9.01988 11.9528 8.89788 11.9934 8.71826C12.138 8.07683 12.2113 7.43024 12.2113 6.79644C12.2113 5.44658 11.8819 4.32215 11.2321 3.45456C11.1042 3.2837 10.8619 3.24886 10.691 3.37684C10.5202 3.50481 10.4853 3.74711 10.6133 3.91797C11.1606 4.64887 11.4382 5.61733 11.4382 6.79644Z" fill="#FF9900"/>
<path d="M5.85572 12.6991C4.89504 12.0438 4.03606 10.7873 3.55786 9.33786C3.49096 9.1351 3.27227 9.025 3.06961 9.0919C2.86685 9.1588 2.75675 9.37739 2.82365 9.58015C3.36118 11.2093 4.30758 12.5789 5.42009 13.3378C5.48674 13.3833 5.56255 13.4051 5.63755 13.4051C5.76104 13.4051 5.88242 13.346 5.95726 13.2363C6.0775 13.0599 6.03209 12.8194 5.85572 12.6991Z" fill="#FF9900"/>
<path d="M19.3542 6.31307C18.1773 5.16685 16.5283 4.53562 14.711 4.53562C14.3277 4.53562 13.9487 4.56408 13.5802 4.61943C13.2734 3.50557 12.7183 2.54309 11.9322 1.77745C10.7553 0.631225 9.10637 0 7.28908 0C5.47179 0 3.82283 0.631225 2.64594 1.77745C1.38437 3.00614 0.717529 4.74169 0.717529 6.79643C0.717529 8.88905 1.40334 11.0672 2.59914 12.7725C3.61853 14.2262 4.87628 15.1617 6.21945 15.4875C6.1292 15.6569 6.07781 15.85 6.07781 16.055V16.8797C6.07781 17.0932 6.25089 17.2662 6.46437 17.2662H6.87954C6.84804 17.504 6.78759 17.6652 6.72094 17.8429C6.61276 18.1313 6.49014 18.4581 6.49014 19.0778C6.49014 19.6978 6.61271 20.0247 6.72089 20.3133C6.81836 20.5731 6.90247 20.7975 6.90247 21.2774C6.90247 21.7572 6.81836 21.9816 6.72089 22.2415C6.61271 22.53 6.49014 22.857 6.49014 23.477C6.49014 23.6905 6.66322 23.8636 6.8767 23.8636C7.09018 23.8636 7.26326 23.6905 7.26326 23.477C7.26326 22.9972 7.34738 22.7728 7.44479 22.5129C7.55297 22.2244 7.67559 21.8974 7.67559 21.2774C7.67559 20.6575 7.55297 20.3304 7.44479 20.0419C7.34738 19.7821 7.26326 19.5577 7.26326 19.0779C7.26326 18.5985 7.34738 18.3742 7.44479 18.1146C7.52787 17.8931 7.61926 17.6484 7.65729 17.2664H8.11369C8.32717 17.2664 8.50025 17.0933 8.50025 16.8798V16.0551C8.50025 15.8502 8.44886 15.657 8.35861 15.4876C8.55354 15.4403 8.74667 15.3803 8.93758 15.3075C9.95325 17.8051 11.7143 19.5435 13.6428 20.0204C13.5516 20.1905 13.4997 20.3846 13.4997 20.5908V21.4155C13.4997 21.629 13.6728 21.802 13.8863 21.802H14.3015C14.27 22.0398 14.2095 22.201 14.1429 22.3787C14.0347 22.667 13.9121 22.9939 13.9121 23.6135C13.9121 23.827 14.0851 24.0001 14.2986 24.0001C14.5121 24.0001 14.6852 23.827 14.6852 23.6135C14.6852 23.1342 14.7693 22.9099 14.8667 22.6503C14.9498 22.4288 15.0412 22.1841 15.0792 21.802H15.5356C15.7491 21.802 15.9222 21.629 15.9222 21.4155V20.5908C15.9222 20.3858 15.8708 20.1927 15.7805 20.0233C17.1237 19.6974 18.3815 18.762 19.4008 17.3083C20.5966 15.603 21.2824 13.4248 21.2824 11.3322C21.2825 9.27731 20.6157 7.54176 19.3542 6.31307ZM3.23217 12.3286C2.12543 10.7503 1.4907 8.73391 1.4907 6.79643C1.4907 4.95507 2.07672 3.41105 3.18537 2.33131C4.21707 1.32646 5.67445 0.773118 7.28908 0.773118C8.90371 0.773118 10.3611 1.32646 11.3928 2.33126C12.5014 3.41105 13.0875 4.95507 13.0875 6.79638C13.0875 8.73391 12.4527 10.7503 11.346 12.3285C10.2086 13.9506 8.76785 14.8439 7.28908 14.8439C5.81031 14.8439 4.36953 13.9506 3.23217 12.3286ZM7.72718 16.0551V16.4932H6.85098V16.0551C6.85098 15.8135 7.04751 15.617 7.28908 15.617C7.53066 15.617 7.72718 15.8135 7.72718 16.0551ZM15.1491 20.5907V21.0288H14.2729V20.5907C14.2729 20.3491 14.4694 20.1526 14.711 20.1526C14.9526 20.1526 15.1491 20.3491 15.1491 20.5907ZM18.7679 16.8642C17.6305 18.4862 16.1898 19.3795 14.711 19.3795C13.6687 19.3795 12.6257 18.9253 11.6947 18.066C10.8579 17.2937 10.1335 16.2035 9.639 14.9783C9.89073 14.837 10.1372 14.673 10.3771 14.4869C10.9301 15.9518 11.8151 17.1729 12.842 17.8734C12.9087 17.9188 12.9845 17.9406 13.0595 17.9406C13.183 17.9406 13.3044 17.8815 13.3792 17.7719C13.4995 17.5955 13.454 17.355 13.2777 17.2347C12.3312 16.5891 11.4837 15.3598 11.0015 13.9376C11.346 13.5972 11.6733 13.2084 11.979 12.7725C13.1748 11.0672 13.8606 8.88905 13.8606 6.79643C13.8606 6.30364 13.8218 5.82951 13.7461 5.376C14.0605 5.33132 14.3838 5.30874 14.711 5.30874C16.3256 5.30874 17.7831 5.86209 18.8147 6.86688C19.9234 7.94667 20.5094 9.49069 20.5094 11.332C20.5094 13.2696 19.8747 15.286 18.7679 16.8642Z" fill="#FF9900"/>
<path d="M18.654 7.99014C18.5261 7.81929 18.2837 7.78444 18.1129 7.91242C17.942 8.0404 17.9072 8.28269 18.0352 8.45355C18.5825 9.18446 18.8601 10.1529 18.8601 11.332C18.8601 11.9087 18.7931 12.4981 18.6611 13.0838C18.6141 13.2921 18.7449 13.499 18.9532 13.5459C18.9818 13.5524 19.0104 13.5555 19.0385 13.5555C19.2153 13.5555 19.3748 13.4335 19.4153 13.2539C19.5599 12.6124 19.6332 11.9658 19.6332 11.332C19.6332 9.98217 19.3037 8.85779 18.654 7.99014Z" fill="#FF9900"/>
<path d="M17.3787 6.8604C17.101 6.69933 16.7991 6.56455 16.4813 6.45972C16.2785 6.39292 16.06 6.50296 15.9931 6.70572C15.9262 6.90849 16.0364 7.12702 16.2391 7.19392C16.5063 7.28206 16.7591 7.39483 16.9907 7.52914C17.0518 7.56455 17.1185 7.58141 17.1843 7.58141C17.3176 7.58141 17.4473 7.51234 17.519 7.38875C17.6263 7.20407 17.5634 6.96755 17.3787 6.8604Z" fill="#FF9900"/>
</svg>
