<svg width="99" height="51" viewBox="0 0 99 51" fill="none" xmlns="http://www.w3.org/2000/svg">
<g clip-path="url(#clip0)">
<path fill-rule="evenodd" clip-rule="evenodd" d="M53.6235 0.177738H68.4824V6.39856H69.8688V12.3172H68.4824V38.5869H72.9436V44.7011H68.4824V49.0734H53.6235V0.177738Z" fill="#D87D1A"/>
<path d="M66.2429 24.9544C66.2074 24.2612 65.9585 23.728 65.4609 23.337C64.981 22.946 64.3944 22.7505 63.719 22.7505C63.0614 22.7505 62.4927 22.946 62.0128 23.337C61.5329 23.728 61.2663 24.2612 61.2307 24.9544C61.2663 25.6653 61.5151 26.1986 62.0128 26.5718C62.4927 26.9451 63.0614 27.1406 63.719 27.1406C64.3767 27.1406 64.9454 26.9451 65.4431 26.5718C65.9408 26.1986 66.2074 25.6476 66.2429 24.9544ZM53.6235 21.4174V14.5212L61.3907 16.1031V15.3388V15.1077C61.1774 14.6812 61.0174 14.2901 60.9108 13.9169C60.8041 13.5436 60.733 13.1704 60.6975 12.7971C60.6975 12.726 60.6975 12.6727 60.6797 12.6016C60.6797 12.5305 60.662 12.4772 60.662 12.4061C60.6797 11.393 60.893 10.5576 61.3018 9.88223C61.7106 9.2246 62.3682 8.8869 63.2392 8.8869C64.2167 8.8869 64.9454 9.18905 65.4253 9.77558C65.9052 10.3621 66.1718 11.1264 66.2074 12.0151C66.2074 12.1573 66.2074 12.2995 66.1896 12.4417C66.1718 12.5838 66.1541 12.726 66.1185 12.8682C66.0474 13.3303 65.8519 13.8102 65.5675 14.2901C65.2831 14.77 64.8388 15.2855 64.2345 15.8542V16.3519V16.5829L68.2514 16.9384C68.3402 16.814 68.4113 16.6896 68.4824 16.5652V20.6531C68.3225 20.4399 68.1447 20.2443 67.9314 20.0666C66.7584 18.9646 65.3187 18.4136 63.648 18.4136C62.0839 18.4136 60.7686 18.858 59.7199 19.7289C58.6713 20.5998 58.1381 21.7907 58.1381 23.3192V23.5503C58.1381 23.7458 58.1558 23.9413 58.1736 24.119C58.1914 24.2968 58.2269 24.4567 58.2625 24.6167L53.6235 21.4174ZM53.6235 34.5522V26.4829L58.1025 29.4867C58.4225 29.7 58.7424 29.8955 59.0445 30.0733C59.3645 30.251 59.6666 30.3932 59.9688 30.5354C60.5553 30.802 61.1596 30.9975 61.7462 31.1041C62.3505 31.2285 62.9903 31.2819 63.6657 31.2819C65.4609 31.2819 66.9361 30.7131 68.0381 29.5756C68.198 29.4156 68.3402 29.2379 68.4824 29.0601V34.8544C68.2336 34.5167 67.9314 34.1968 67.576 33.8768C66.8472 33.2192 65.7808 32.8993 64.3944 32.8993C63.1325 32.8993 62.1727 33.1837 61.5151 33.7524C60.8575 34.3212 60.3953 34.9433 60.1643 35.6364C60.1465 35.672 60.1287 35.7075 60.1287 35.7253C60.1287 35.7609 60.111 35.7964 60.0932 35.8142H60.0221C59.8444 35.0677 59.4533 34.4812 58.8313 34.0546C58.2092 33.628 57.4627 33.4147 56.5918 33.4147C55.3476 33.4503 54.3523 33.8235 53.6235 34.5522ZM53.6235 50.7264V43.5458C53.7657 43.688 53.9079 43.8124 54.0501 43.9546C54.7788 44.5944 55.8808 45.0032 57.3205 45.181V41.0575V40.8264H57.2494C56.7873 40.8264 56.3962 40.6664 56.0585 40.3287C55.7386 40.0088 55.5609 39.6178 55.5431 39.1734C55.5431 39.1023 55.5431 39.0135 55.5609 38.9424C55.5787 38.8713 55.5964 38.7824 55.632 38.7113C55.7031 38.4447 55.8808 38.2136 56.1296 38.0004C56.3785 37.7871 56.7695 37.6804 57.3205 37.6804C57.8181 37.6804 58.1914 37.7871 58.458 37.9826C58.7246 38.1781 58.9023 38.4092 58.9912 38.658C59.0801 38.8535 59.1512 39.0135 59.1512 39.1912C59.169 39.3512 59.169 39.4756 59.169 39.5467V40.0621H62.0483V39.8311C62.0305 39.7422 62.0305 39.6356 62.0305 39.5467C62.0305 39.4578 62.0305 39.3512 62.0305 39.2623C62.0483 38.6402 62.1905 38.1426 62.4927 37.7871C62.777 37.4316 63.2569 37.2539 63.8968 37.2539C64.0212 37.2539 64.1634 37.2539 64.3411 37.2716C64.5011 37.2894 64.6788 37.325 64.8566 37.3605C65.1943 37.4494 65.4964 37.6449 65.7808 37.9115C66.0652 38.1781 66.2074 38.6047 66.2251 39.1912C66.1896 39.76 66.0296 40.1688 65.763 40.4354C65.4786 40.702 65.1765 40.8975 64.8388 41.0041C64.6788 41.0575 64.5189 41.0752 64.3767 41.093C64.2345 41.1108 64.0923 41.1108 63.9679 41.1108H63.879V45.2165V45.4476C64.1989 45.4298 64.59 45.3765 65.0521 45.3054C65.5142 45.2343 65.9941 45.0743 66.4918 44.861C67.3094 44.5233 68.0559 43.919 68.7135 43.0837C69.7266 41.804 69.7977 40.1154 69.691 38.5513C70.3842 38.5336 71.2018 38.498 72.1083 38.4092C73.1747 38.3203 74.2589 38.0715 75.3609 37.6804C77.4226 37.0583 79.3067 35.832 80.9952 34.0013C82.6837 32.1706 83.519 29.309 83.519 25.4165C83.519 20.6531 82.186 17.2761 79.5199 15.2677C76.925 13.3303 73.6724 12.335 69.7444 12.2817C69.851 10.1844 69.3711 7.89156 67.8248 6.39856C66.5629 5.1544 65.0699 4.53232 63.3636 4.53232C61.8883 4.53232 60.662 4.97666 59.6844 5.88312C58.6891 6.78959 58.2092 8.0693 58.2092 9.75781V9.98887C58.2092 10.3088 58.2269 10.611 58.2447 10.8953C58.2625 11.1619 58.298 11.4108 58.3514 11.6418L56.2185 11.2686V5.20772H53.6413V0.177738H54.37H72.8548C79.9821 0.177738 85.332 1.54632 88.9223 4.26571C92.5126 6.9851 95.0187 9.98887 96.4761 13.2592C97.6314 15.8187 98.3246 18.2359 98.5379 20.511C98.7512 22.8038 98.8578 24.439 98.8578 25.4521C98.8578 31.9573 96.8672 37.7871 92.8681 42.9593C88.869 48.1314 82.2038 50.7264 72.8725 50.7264H72.1438H53.6235Z" fill="#3A2E94"/>
<path fill-rule="evenodd" clip-rule="evenodd" d="M49.8733 34.3567C49.8733 43.368 42.7637 50.7442 34.0724 50.7442H15.8898C7.19838 50.7442 0.0888672 43.368 0.0888672 34.3567C0.0888672 25.3454 7.19838 17.9693 15.8898 17.9693H34.0724C42.7637 17.9515 49.8733 25.3276 49.8733 34.3567Z" fill="url(#paint0_linear)"/>
<g opacity="0.89">
<path opacity="0.89" fill-rule="evenodd" clip-rule="evenodd" d="M33.859 50.7264C25.0254 50.7264 17.7915 43.4925 17.7915 34.6589V16.1741C17.7915 7.34057 25.0254 0.106643 33.859 0.106643C42.6926 0.106643 49.9265 7.34057 49.9265 16.1741V34.6589C49.9265 43.5102 42.6926 50.7264 33.859 50.7264Z" fill="#D87D1A"/>
</g>
</g>
<defs>
<linearGradient id="paint0_linear" x1="9.06841" y1="50.2653" x2="40.8959" y2="18.4377" gradientUnits="userSpaceOnUse">
<stop stop-color="#424C9F"/>
<stop offset="1" stop-color="#811A82"/>
</linearGradient>
<clipPath id="clip0">
<rect width="99" height="50.833" fill="white"/>
</clipPath>
</defs>
</svg>
